<?xml version="1.0" standalone="no"?>
<!DOCTYPE svg PUBLIC "-//W3C//DTD SVG 20010904//EN"
 "http://www.w3.org/TR/2001/REC-SVG-20010904/DTD/svg10.dtd">
<svg version="1.0" xmlns="http://www.w3.org/2000/svg"
 width="700.000000pt" height="700.000000pt" viewBox="0 0 700.000000 700.000000"
 preserveAspectRatio="xMidYMid meet">
<metadata>
Created by potrace 1.14, written by Peter Selinger 2001-2017
</metadata>
<g transform="translate(0.000000,700.000000) scale(0.100000,-0.100000)"
fill="#000000" stroke="none">
<path d="M3225 6614 c-544 -55 -1029 -228 -1471 -525 -342 -229 -711 -610
-898 -926 -6 -10 78 -13 407 -13 l414 0 19 42 c120 267 491 333 699 124 253
-252 115 -678 -239 -739 -81 -14 -169 -1 -251 37 -72 33 -168 124 -201 193
l-26 53 -497 0 -497 0 -56 -132 c-78 -184 -110 -280 -157 -467 -38 -150 -71
-346 -85 -503 l-7 -68 454 0 454 0 24 52 c35 76 123 161 206 201 64 30 74 32
184 32 113 0 116 -1 191 -38 267 -132 328 -472 122 -687 -166 -174 -429 -183
-607 -20 -30 27 -68 76 -86 109 l-32 61 -456 0 -456 0 7 -112 c19 -320 101
-673 228 -980 l40 -98 292 5 c160 3 391 8 512 11 l221 6 22 48 c41 90 133 176
231 214 165 65 340 28 466 -98 295 -296 46 -794 -368 -736 -81 12 -191 67
-245 122 -23 24 -57 70 -75 103 l-34 60 -443 3 -443 2 28 -47 c53 -91 163
-251 245 -354 105 -134 354 -383 489 -489 436 -345 939 -565 1492 -652 126
-20 181 -22 458 -22 277 0 332 2 458 22 548 86 1029 294 1472 636 134 104 403
370 510 506 347 439 565 938 652 1492 20 126 22 181 22 458 0 361 -12 471 -85
763 -279 1112 -1154 1987 -2266 2266 -271 68 -396 83 -718 86 -154 2 -298 1
-320 -1z m2344 -1711 c47 -48 198 -532 256 -823 121 -609 67 -1119 -199 -1865
-38 -106 -68 -145 -112 -145 -40 0 -81 27 -93 61 -16 45 -16 2693 0 2738 22
62 102 80 148 34z"/>
</g>
</svg>
