<svg width="12" height="12" viewBox="0 0 12 12" fill="none" xmlns="http://www.w3.org/2000/svg">
<path d="M5.82434 0.00323334C5.63963 0.021055 5.44734 0.0745198 5.30336 0.14862C4.9832 0.313705 4.74261 0.63637 4.64883 1.02845C4.59768 1.24043 4.59958 1.17571 4.59579 2.95881L4.592 4.61247H2.97035C1.2142 4.61247 1.2284 4.61247 1.00865 4.66312C0.626917 4.75317 0.30865 4.98766 0.150463 5.29719C0.0424795 5.51012 -0.0105651 5.77932 0.00174882 6.06352C0.0178516 6.43684 0.149516 6.74262 0.40053 6.99119C0.589975 7.17784 0.793629 7.2904 1.05885 7.35231C1.25209 7.39827 1.23219 7.39827 2.96561 7.39827H4.592L4.59579 9.05099C4.59958 10.835 4.59768 10.7703 4.64883 10.9823C4.74355 11.3772 4.97562 11.6867 5.30052 11.8518C5.41798 11.9118 5.53638 11.9503 5.68131 11.9775C5.84044 12.0075 6.14924 12.0075 6.30932 11.9775C6.59348 11.925 6.79619 11.8208 6.98469 11.6342C7.20634 11.4128 7.33043 11.1549 7.38347 10.8031C7.39863 10.7046 7.40052 10.5499 7.40336 9.0463L7.40715 7.39827H9.03354C10.8219 7.39827 10.785 7.39921 11.0142 7.34105C11.3931 7.24444 11.6914 7.01276 11.8534 6.68634C11.9965 6.40026 12.0391 5.9913 11.9624 5.63018C11.8837 5.25311 11.6517 4.95483 11.3021 4.77943C11.1885 4.72127 11.1222 4.69782 10.9877 4.66406C10.7812 4.61247 10.7878 4.61247 9.0288 4.61247H7.40715L7.40336 2.95881C7.40052 1.49181 7.39863 1.29483 7.38442 1.20572C7.32853 0.838974 7.19213 0.569773 6.94585 0.335278C6.77156 0.169256 6.57359 0.0726439 6.31216 0.0248069C6.20986 0.00604728 5.92759 -0.00614646 5.82434 0.00323334Z" fill="#536DFE"/>
</svg>
