<svg width="109" height="34" viewBox="0 0 109 34" fill="none" xmlns="http://www.w3.org/2000/svg">
<path d="M32 17.4626C32 26.0002 25.0626 32.9252 16.5 32.9252C7.93744 32.9252 1 26.0002 1 17.4626C1 8.92497 7.93744 2 16.5 2C25.0626 2 32 8.92497 32 17.4626Z" fill="url(#paint0_linear_223_2)" stroke="#F1F3FF" stroke-width="2"/>
<path d="M1.94568 9.6886H9.62507V11.0605H1.57153L1.94568 9.6886Z" fill="#F1F3FF"/>
<path d="M0.0748291 16.548H7.33333V17.9199H0.0748291V16.548Z" fill="#F1F3FF"/>
<path d="M1.57141 23.4074H9.625V24.7793H1.94556L1.57141 23.4074Z" fill="#F1F3FF"/>
<ellipse cx="9.85413" cy="10.3745" rx="2.0625" ry="2.05782" fill="#F1F3FF"/>
<ellipse cx="8.02075" cy="17.2339" rx="2.0625" ry="2.05782" fill="#F1F3FF"/>
<ellipse cx="9.85413" cy="24.0934" rx="2.0625" ry="2.05782" fill="#F1F3FF"/>
<path d="M26.3835 11.0217C26.3195 10.8459 26.1514 10.7279 25.9644 10.7279C25.7173 10.7279 25.5169 10.9261 25.5169 11.1732C25.5169 12.4579 25.5169 16.1617 25.5169 17.4626C25.5169 18.7629 25.5169 22.4637 25.5169 23.7501C25.5169 23.9982 25.7181 24.1973 25.9661 24.1973C26.1524 24.1973 26.3203 24.0806 26.3854 23.9061C28.2456 18.9236 28.1962 16.0034 26.3835 11.0217Z" fill="#F1F3FF"/>
<path d="M54.5967 24.6924L54.6094 25.1113C54.6094 25.3991 54.529 25.6234 54.3682 25.7842C54.2074 25.945 53.9873 26.0254 53.708 26.0254C53.4372 26.0254 53.1325 25.9111 52.7939 25.6826C52.4554 25.4541 52.0957 25.069 51.7148 24.5273C51.334 23.9857 50.9574 23.2493 50.585 22.3184C50.2126 21.3789 49.9036 20.3802 49.6582 19.3223C49.1673 17.2233 48.9219 15.027 48.9219 12.7334C48.9219 11.5908 48.9854 10.5033 49.1123 9.4707L48.9473 9.69922C47.373 11.9505 45.9766 15.3275 44.7578 19.8301C44.1823 21.929 43.7845 23.9053 43.5645 25.7588C43.5306 26.0127 43.3232 26.1396 42.9424 26.1396C42.3415 26.1396 41.9056 25.8307 41.6348 25.2129C41.5417 24.9928 41.4951 24.6839 41.4951 24.2861C41.4951 23.8883 41.5671 23.3086 41.7109 22.5469C41.8633 21.7767 42.0706 20.9303 42.333 20.0078C42.5954 19.0768 42.9128 18.0993 43.2852 17.0752C43.6576 16.0426 44.0638 15.0228 44.5039 14.0156C44.9525 13.0085 45.4307 12.0479 45.9385 11.1338C46.4548 10.2197 46.9837 9.41146 47.5254 8.70898C48.7272 7.16862 49.8529 6.37305 50.9023 6.32227C51.4779 6.28841 51.8418 6.37728 51.9941 6.58887C52.1634 6.82585 52.1803 7.2321 52.0449 7.80762C51.7995 8.79785 51.6768 9.77962 51.6768 10.7529C51.6768 11.7262 51.6979 12.5472 51.7402 13.2158C51.791 13.8844 51.8587 14.5573 51.9434 15.2344C52.028 15.903 52.1296 16.5674 52.248 17.2275C52.375 17.8877 52.5104 18.5182 52.6543 19.1191C52.9844 20.4395 53.3187 21.4805 53.6572 22.2422C53.9281 21.5397 54.2243 20.8372 54.5459 20.1348L56.4375 15.9707C57.487 13.6178 58.0117 11.7305 58.0117 10.3086C58.0117 8.97135 57.7367 8.16309 57.1865 7.88379C57.0511 7.82454 56.9665 7.71452 56.9326 7.55371C56.9072 7.3929 56.9368 7.2321 57.0215 7.07129C57.1146 6.91048 57.2331 6.77083 57.377 6.65234C57.7155 6.37305 58.0879 6.2334 58.4941 6.2334C58.9089 6.2334 59.2897 6.32227 59.6367 6.5C59.9837 6.66927 60.2715 6.89779 60.5 7.18555C60.9316 7.73568 61.1475 8.38737 61.1475 9.14062C61.1475 9.88542 61.0163 10.6598 60.7539 11.4639C60.5 12.2594 60.1699 13.0931 59.7637 13.9648C59.3574 14.8281 58.9046 15.7083 58.4053 16.6055L56.9453 19.2715C55.7858 21.3874 55.0326 22.9954 54.6855 24.0957C54.6263 24.265 54.5967 24.4639 54.5967 24.6924ZM61.5029 25.1367C61.1475 24.7982 60.8682 24.3708 60.665 23.8545C60.4619 23.3298 60.3561 22.7119 60.3477 22.001C60.3392 21.29 60.4238 20.5706 60.6016 19.8428C60.7878 19.1149 61.0459 18.4124 61.376 17.7354C61.7145 17.0583 62.1165 16.4235 62.582 15.8311C63.056 15.2386 63.5765 14.7223 64.1436 14.2822C65.3792 13.3343 66.6615 12.8604 67.9902 12.8604C69.7337 12.8604 70.9144 13.6263 71.5322 15.1582C71.9723 16.2669 71.9977 17.6084 71.6084 19.1826C71.2529 20.6299 70.6012 21.9587 69.6533 23.1689C68.7139 24.3792 67.6051 25.2383 66.3271 25.7461C65.6839 26 65.0492 26.127 64.4229 26.127C63.805 26.127 63.2507 26.0465 62.7598 25.8857C62.2773 25.7249 61.8584 25.4753 61.5029 25.1367ZM63.9277 18.9795C63.6738 19.6058 63.4707 20.249 63.3184 20.9092C63.1745 21.5693 63.1068 22.1956 63.1152 22.7881C63.1237 23.3721 63.2126 23.8333 63.3818 24.1719C63.5596 24.502 63.8431 24.667 64.2324 24.667C64.6217 24.667 65.0026 24.5358 65.375 24.2734C65.7559 24.0026 66.124 23.6471 66.4795 23.207C66.835 22.7669 67.1693 22.2591 67.4824 21.6836C67.7956 21.1081 68.0706 20.5072 68.3076 19.8809C68.8239 18.5182 69.0736 17.3079 69.0566 16.25C69.0566 15.319 68.8662 14.7266 68.4854 14.4727C68.333 14.3711 68.1172 14.3203 67.8379 14.3203C67.5671 14.3203 67.2539 14.4473 66.8984 14.7012C66.543 14.9466 66.1875 15.2809 65.832 15.7041C65.4766 16.1273 65.1338 16.6224 64.8037 17.1895C64.4736 17.7565 64.1816 18.3532 63.9277 18.9795ZM81.0918 22.6738C81.3372 22.6738 81.46 22.8389 81.46 23.1689C81.46 23.4482 81.3753 23.7191 81.2061 23.9814C80.9775 24.4723 80.5205 24.9378 79.835 25.3779C79.0563 25.8773 78.2734 26.127 77.4863 26.127C76.1237 26.127 75.2604 25.5176 74.8965 24.2988C74.4648 22.8516 75.1123 19.7835 76.8389 15.0947C75.8656 15.0101 75.3366 14.8408 75.252 14.5869C75.2266 14.5107 75.2139 14.4303 75.2139 14.3457C75.2139 14.2526 75.252 14.1468 75.3281 14.0283C75.4128 13.9098 75.5186 13.7956 75.6455 13.6855C75.9417 13.4401 76.2422 13.3174 76.5469 13.3174H77.5498C78.4639 11.1761 79.1156 9.95736 79.5049 9.66113C79.6911 9.52572 79.8984 9.45801 80.127 9.45801C80.3555 9.45801 80.5459 9.48763 80.6982 9.54688C80.8506 9.60612 80.986 9.69076 81.1045 9.80078C81.3753 10.0547 81.5107 10.3382 81.5107 10.6514C81.5107 10.8206 81.46 11.0153 81.3584 11.2354L80.4189 13.2793H80.7236C81.2484 13.2793 81.6715 13.2751 81.9932 13.2666C81.9932 13.2666 82.2344 13.2624 82.7168 13.2539C82.8776 13.2454 83.0765 13.2412 83.3135 13.2412C83.5589 13.2412 83.6816 13.3301 83.6816 13.5078C83.6816 14.625 82.3613 15.1836 79.7207 15.1836H79.6191L78.7559 17.418C77.7826 20.0586 77.2959 21.9079 77.2959 22.9658C77.2959 23.262 77.3636 23.4948 77.499 23.6641C77.6344 23.8249 77.8883 23.9053 78.2607 23.9053C78.6331 23.9053 78.9717 23.8418 79.2764 23.7148C79.5811 23.5879 79.8477 23.4482 80.0762 23.2959C80.3047 23.1351 80.4993 22.9912 80.6602 22.8643C80.8294 22.7373 80.9733 22.6738 81.0918 22.6738ZM83.1738 21.5566C83.2077 20.8203 83.3304 20.1178 83.542 19.4492C83.7536 18.7721 84.0371 18.1204 84.3926 17.4941C84.748 16.8594 85.1628 16.2627 85.6367 15.7041C86.1191 15.137 86.6396 14.6419 87.1982 14.2188C88.4085 13.3132 89.6315 12.8604 90.8672 12.8604C92.3145 12.8604 93.2793 13.457 93.7617 14.6504C93.931 15.0566 94.0114 15.5391 94.0029 16.0977C93.9945 16.6478 93.8887 17.1598 93.6855 17.6338C93.4824 18.0993 93.1989 18.5267 92.835 18.916C92.4795 19.2969 92.0521 19.6396 91.5527 19.9443C91.0618 20.249 90.5244 20.5072 89.9404 20.7188C88.7386 21.1419 87.4521 21.362 86.0811 21.3789C86.0472 21.4974 86.026 21.6751 86.0176 21.9121C86.0091 22.1491 86.0345 22.4157 86.0938 22.7119C86.153 22.9997 86.2546 23.2578 86.3984 23.4863C86.7031 23.9941 87.1432 24.248 87.7188 24.248C88.7005 24.248 89.6569 23.9603 90.5879 23.3848C90.918 23.1901 91.1846 22.9912 91.3877 22.7881C91.5993 22.5765 91.7812 22.4707 91.9336 22.4707C92.0859 22.4707 92.2171 22.5638 92.3271 22.75C92.4456 22.9277 92.5049 23.1309 92.5049 23.3594C92.5049 23.8079 92.3779 24.1973 92.124 24.5273C91.0576 25.5938 89.4707 26.127 87.3633 26.127C86.1191 26.127 85.1204 25.7546 84.3672 25.0098C83.5208 24.1634 83.123 23.0124 83.1738 21.5566ZM90.5879 14.5488C89.6992 14.5488 88.8444 15.1582 88.0234 16.377C87.3294 17.4264 86.7708 18.6706 86.3477 20.1094C87.7611 19.9655 88.9883 19.4069 90.0293 18.4336C90.9857 17.5195 91.4639 16.6436 91.4639 15.8057C91.4639 14.9678 91.1719 14.5488 90.5879 14.5488ZM97.583 24.7939C97.5661 24.9209 97.3799 25.5895 97.0244 26.7998C96.6774 28.0101 96.3854 28.9707 96.1484 29.6816C95.6152 31.2728 95.1751 32.263 94.8281 32.6523C94.5488 32.957 94.2103 33.1094 93.8125 33.1094C93.3301 33.1094 92.9619 32.8724 92.708 32.3984C92.6318 32.263 92.5938 32.1107 92.5938 31.9414C92.5938 31.7806 92.7207 31.4251 92.9746 30.875C93.6432 29.4785 94.5361 26.7279 95.6533 22.623C96.1019 20.998 96.3981 19.8936 96.542 19.3096L96.9482 17.7227C97.2106 16.6732 97.363 15.9622 97.4053 15.5898C97.4561 15.209 97.4349 14.9424 97.3418 14.79C97.2487 14.6292 97.1429 14.5107 97.0244 14.4346C96.9059 14.3499 96.7959 14.278 96.6943 14.2188C96.5928 14.1595 96.5505 14.0537 96.5674 13.9014C96.5843 13.7406 96.652 13.5967 96.7705 13.4697C96.8975 13.3343 97.054 13.2201 97.2402 13.127C97.6211 12.9492 98.002 12.8604 98.3828 12.8604C98.7721 12.8604 99.0768 12.9069 99.2969 13C99.5169 13.0931 99.6989 13.2201 99.8428 13.3809C100.147 13.7109 100.283 14.0326 100.249 14.3457C100.164 14.9974 100.071 15.556 99.9697 16.0215C101.451 13.9141 102.987 12.8604 104.578 12.8604C106.025 12.8604 106.994 13.6094 107.485 15.1074C107.655 15.6322 107.739 16.2712 107.739 17.0244C107.739 17.7777 107.625 18.5352 107.396 19.2969C107.168 20.0501 106.859 20.7653 106.47 21.4424C106.08 22.1195 105.628 22.7458 105.111 23.3213C104.595 23.8883 104.049 24.3835 103.474 24.8066C102.255 25.6868 101.104 26.127 100.021 26.127C98.9372 26.127 98.1247 25.6826 97.583 24.7939ZM99.5381 19.3857C99.2334 19.9782 98.9837 20.5706 98.7891 21.1631C98.6029 21.7555 98.5098 22.2972 98.5098 22.7881C98.5098 23.279 98.6156 23.6852 98.8271 24.0068C99.0387 24.32 99.3519 24.4766 99.7666 24.4766C100.181 24.4766 100.592 24.3665 100.998 24.1465C101.413 23.918 101.811 23.6133 102.191 23.2324C102.581 22.8516 102.94 22.4072 103.271 21.8994C103.609 21.3831 103.901 20.8372 104.146 20.2617C104.68 19.0091 104.946 17.82 104.946 16.6943C104.946 16.085 104.866 15.611 104.705 15.2725C104.544 14.9339 104.295 14.7646 103.956 14.7646C103.626 14.7646 103.279 14.8958 102.915 15.1582C102.551 15.4121 102.17 15.7549 101.772 16.1865C101.375 16.6097 100.981 17.1006 100.592 17.6592C100.202 18.2093 99.8512 18.7848 99.5381 19.3857Z" fill="#F1F3FF"/>
<defs>
<linearGradient id="paint0_linear_223_2" x1="6.06122" y1="5.11565" x2="33" y2="36.5442" gradientUnits="userSpaceOnUse">
<stop stop-color="#536DFE"/>
<stop offset="1" stop-color="#9E3DFF"/>
</linearGradient>
</defs>
</svg>
