<svg width="122" height="44" viewBox="0 0 122 44" fill="none" xmlns="http://www.w3.org/2000/svg">
<path d="M71.5508 29.793L71.5625 30.1797C71.5625 30.4453 71.4883 30.6523 71.3398 30.8008C71.1914 30.9492 70.9883 31.0234 70.7305 31.0234C70.4805 31.0234 70.1992 30.918 69.8867 30.707C69.5742 30.4961 69.2422 30.1406 68.8906 29.6406C68.5391 29.1406 68.1914 28.4609 67.8477 27.6016C67.5039 26.7344 67.2188 25.8125 66.9922 24.8359C66.5391 22.8984 66.3125 20.8711 66.3125 18.7539C66.3125 17.6992 66.3711 16.6953 66.4883 15.7422L66.3359 15.9531C64.8828 18.0312 63.5938 21.1484 62.4688 25.3047C61.9375 27.2422 61.5703 29.0664 61.3672 30.7773C61.3359 31.0117 61.1445 31.1289 60.793 31.1289C60.2383 31.1289 59.8359 30.8438 59.5859 30.2734C59.5 30.0703 59.457 29.7852 59.457 29.418C59.457 29.0508 59.5234 28.5156 59.6562 27.8125C59.7969 27.1016 59.9883 26.3203 60.2305 25.4688C60.4727 24.6094 60.7656 23.707 61.1094 22.7617C61.4531 21.8086 61.8281 20.8672 62.2344 19.9375C62.6484 19.0078 63.0898 18.1211 63.5586 17.2773C64.0352 16.4336 64.5234 15.6875 65.0234 15.0391C66.1328 13.6172 67.1719 12.8828 68.1406 12.8359C68.6719 12.8047 69.0078 12.8867 69.1484 13.082C69.3047 13.3008 69.3203 13.6758 69.1953 14.207C68.9688 15.1211 68.8555 16.0273 68.8555 16.9258C68.8555 17.8242 68.875 18.582 68.9141 19.1992C68.9609 19.8164 69.0234 20.4375 69.1016 21.0625C69.1797 21.6797 69.2734 22.293 69.3828 22.9023C69.5 23.5117 69.625 24.0938 69.7578 24.6484C70.0625 25.8672 70.3711 26.8281 70.6836 27.5312C70.9336 26.8828 71.207 26.2344 71.5039 25.5859L73.25 21.7422C74.2188 19.5703 74.7031 17.8281 74.7031 16.5156C74.7031 15.2812 74.4492 14.5352 73.9414 14.2773C73.8164 14.2227 73.7383 14.1211 73.707 13.9727C73.6836 13.8242 73.7109 13.6758 73.7891 13.5273C73.875 13.3789 73.9844 13.25 74.1172 13.1406C74.4297 12.8828 74.7734 12.7539 75.1484 12.7539C75.5312 12.7539 75.8828 12.8359 76.2031 13C76.5234 13.1562 76.7891 13.3672 77 13.6328C77.3984 14.1406 77.5977 14.7422 77.5977 15.4375C77.5977 16.125 77.4766 16.8398 77.2344 17.582C77 18.3164 76.6953 19.0859 76.3203 19.8906C75.9453 20.6875 75.5273 21.5 75.0664 22.3281L73.7188 24.7891C72.6484 26.7422 71.9531 28.2266 71.6328 29.2422C71.5781 29.3984 71.5508 29.582 71.5508 29.793ZM77.9258 30.2031C77.5977 29.8906 77.3398 29.4961 77.1523 29.0195C76.9648 28.5352 76.8672 27.9648 76.8594 27.3086C76.8516 26.6523 76.9297 25.9883 77.0938 25.3164C77.2656 24.6445 77.5039 23.9961 77.8086 23.3711C78.1211 22.7461 78.4922 22.1602 78.9219 21.6133C79.3594 21.0664 79.8398 20.5898 80.3633 20.1836C81.5039 19.3086 82.6875 18.8711 83.9141 18.8711C85.5234 18.8711 86.6133 19.5781 87.1836 20.9922C87.5898 22.0156 87.6133 23.2539 87.2539 24.707C86.9258 26.043 86.3242 27.2695 85.4492 28.3867C84.582 29.5039 83.5586 30.2969 82.3789 30.7656C81.7852 31 81.1992 31.1172 80.6211 31.1172C80.0508 31.1172 79.5391 31.043 79.0859 30.8945C78.6406 30.7461 78.2539 30.5156 77.9258 30.2031ZM80.1641 24.5195C79.9297 25.0977 79.7422 25.6914 79.6016 26.3008C79.4688 26.9102 79.4062 27.4883 79.4141 28.0352C79.4219 28.5742 79.5039 29 79.6602 29.3125C79.8242 29.6172 80.0859 29.7695 80.4453 29.7695C80.8047 29.7695 81.1562 29.6484 81.5 29.4062C81.8516 29.1562 82.1914 28.8281 82.5195 28.4219C82.8477 28.0156 83.1562 27.5469 83.4453 27.0156C83.7344 26.4844 83.9883 25.9297 84.207 25.3516C84.6836 24.0938 84.9141 22.9766 84.8984 22C84.8984 21.1406 84.7227 20.5938 84.3711 20.3594C84.2305 20.2656 84.0312 20.2188 83.7734 20.2188C83.5234 20.2188 83.2344 20.3359 82.9062 20.5703C82.5781 20.7969 82.25 21.1055 81.9219 21.4961C81.5938 21.8867 81.2773 22.3438 80.9727 22.8672C80.668 23.3906 80.3984 23.9414 80.1641 24.5195ZM96.0078 27.9297C96.2344 27.9297 96.3477 28.082 96.3477 28.3867C96.3477 28.6445 96.2695 28.8945 96.1133 29.1367C95.9023 29.5898 95.4805 30.0195 94.8477 30.4258C94.1289 30.8867 93.4062 31.1172 92.6797 31.1172C91.4219 31.1172 90.625 30.5547 90.2891 29.4297C89.8906 28.0938 90.4883 25.2617 92.082 20.9336C91.1836 20.8555 90.6953 20.6992 90.6172 20.4648C90.5938 20.3945 90.582 20.3203 90.582 20.2422C90.582 20.1562 90.6172 20.0586 90.6875 19.9492C90.7656 19.8398 90.8633 19.7344 90.9805 19.6328C91.2539 19.4062 91.5312 19.293 91.8125 19.293H92.7383C93.582 17.3164 94.1836 16.1914 94.543 15.918C94.7148 15.793 94.9062 15.7305 95.1172 15.7305C95.3281 15.7305 95.5039 15.7578 95.6445 15.8125C95.7852 15.8672 95.9102 15.9453 96.0195 16.0469C96.2695 16.2812 96.3945 16.543 96.3945 16.832C96.3945 16.9883 96.3477 17.168 96.2539 17.3711L95.3867 19.2578H95.668C96.1523 19.2578 96.543 19.2539 96.8398 19.2461C96.8398 19.2461 97.0625 19.2422 97.5078 19.2344C97.6562 19.2266 97.8398 19.2227 98.0586 19.2227C98.2852 19.2227 98.3984 19.3047 98.3984 19.4688C98.3984 20.5 97.1797 21.0156 94.7422 21.0156H94.6484L93.8516 23.0781C92.9531 25.5156 92.5039 27.2227 92.5039 28.1992C92.5039 28.4727 92.5664 28.6875 92.6914 28.8438C92.8164 28.9922 93.0508 29.0664 93.3945 29.0664C93.7383 29.0664 94.0508 29.0078 94.332 28.8906C94.6133 28.7734 94.8594 28.6445 95.0703 28.5039C95.2812 28.3555 95.4609 28.2227 95.6094 28.1055C95.7656 27.9883 95.8984 27.9297 96.0078 27.9297ZM97.9297 26.8984C97.9609 26.2188 98.0742 25.5703 98.2695 24.9531C98.4648 24.3281 98.7266 23.7266 99.0547 23.1484C99.3828 22.5625 99.7656 22.0117 100.203 21.4961C100.648 20.9727 101.129 20.5156 101.645 20.125C102.762 19.2891 103.891 18.8711 105.031 18.8711C106.367 18.8711 107.258 19.4219 107.703 20.5234C107.859 20.8984 107.934 21.3438 107.926 21.8594C107.918 22.3672 107.82 22.8398 107.633 23.2773C107.445 23.707 107.184 24.1016 106.848 24.4609C106.52 24.8125 106.125 25.1289 105.664 25.4102C105.211 25.6914 104.715 25.9297 104.176 26.125C103.066 26.5156 101.879 26.7188 100.613 26.7344C100.582 26.8438 100.562 27.0078 100.555 27.2266C100.547 27.4453 100.57 27.6914 100.625 27.9648C100.68 28.2305 100.773 28.4688 100.906 28.6797C101.188 29.1484 101.594 29.3828 102.125 29.3828C103.031 29.3828 103.914 29.1172 104.773 28.5859C105.078 28.4062 105.324 28.2227 105.512 28.0352C105.707 27.8398 105.875 27.7422 106.016 27.7422C106.156 27.7422 106.277 27.8281 106.379 28C106.488 28.1641 106.543 28.3516 106.543 28.5625C106.543 28.9766 106.426 29.3359 106.191 29.6406C105.207 30.625 103.742 31.1172 101.797 31.1172C100.648 31.1172 99.7266 30.7734 99.0312 30.0859C98.25 29.3047 97.8828 28.2422 97.9297 26.8984ZM104.773 20.4297C103.953 20.4297 103.164 20.9922 102.406 22.1172C101.766 23.0859 101.25 24.2344 100.859 25.5625C102.164 25.4297 103.297 24.9141 104.258 24.0156C105.141 23.1719 105.582 22.3633 105.582 21.5898C105.582 20.8164 105.312 20.4297 104.773 20.4297ZM111.23 29.8867C111.215 30.0039 111.043 30.6211 110.715 31.7383C110.395 32.8555 110.125 33.7422 109.906 34.3984C109.414 35.8672 109.008 36.7812 108.688 37.1406C108.43 37.4219 108.117 37.5625 107.75 37.5625C107.305 37.5625 106.965 37.3438 106.73 36.9062C106.66 36.7812 106.625 36.6406 106.625 36.4844C106.625 36.3359 106.742 36.0078 106.977 35.5C107.594 34.2109 108.418 31.6719 109.449 27.8828C109.863 26.3828 110.137 25.3633 110.27 24.8242L110.645 23.3594C110.887 22.3906 111.027 21.7344 111.066 21.3906C111.113 21.0391 111.094 20.793 111.008 20.6523C110.922 20.5039 110.824 20.3945 110.715 20.3242C110.605 20.2461 110.504 20.1797 110.41 20.125C110.316 20.0703 110.277 19.9727 110.293 19.832C110.309 19.6836 110.371 19.5508 110.48 19.4336C110.598 19.3086 110.742 19.2031 110.914 19.1172C111.266 18.9531 111.617 18.8711 111.969 18.8711C112.328 18.8711 112.609 18.9141 112.812 19C113.016 19.0859 113.184 19.2031 113.316 19.3516C113.598 19.6562 113.723 19.9531 113.691 20.2422C113.613 20.8438 113.527 21.3594 113.434 21.7891C114.801 19.8438 116.219 18.8711 117.688 18.8711C119.023 18.8711 119.918 19.5625 120.371 20.9453C120.527 21.4297 120.605 22.0195 120.605 22.7148C120.605 23.4102 120.5 24.1094 120.289 24.8125C120.078 25.5078 119.793 26.168 119.434 26.793C119.074 27.418 118.656 27.9961 118.18 28.5273C117.703 29.0508 117.199 29.5078 116.668 29.8984C115.543 30.7109 114.48 31.1172 113.48 31.1172C112.48 31.1172 111.73 30.707 111.23 29.8867ZM113.035 24.8945C112.754 25.4414 112.523 25.9883 112.344 26.5352C112.172 27.082 112.086 27.582 112.086 28.0352C112.086 28.4883 112.184 28.8633 112.379 29.1602C112.574 29.4492 112.863 29.5938 113.246 29.5938C113.629 29.5938 114.008 29.4922 114.383 29.2891C114.766 29.0781 115.133 28.7969 115.484 28.4453C115.844 28.0938 116.176 27.6836 116.48 27.2148C116.793 26.7383 117.062 26.2344 117.289 25.7031C117.781 24.5469 118.027 23.4492 118.027 22.4102C118.027 21.8477 117.953 21.4102 117.805 21.0977C117.656 20.7852 117.426 20.6289 117.113 20.6289C116.809 20.6289 116.488 20.75 116.152 20.9922C115.816 21.2266 115.465 21.543 115.098 21.9414C114.73 22.332 114.367 22.7852 114.008 23.3008C113.648 23.8086 113.324 24.3398 113.035 24.8945Z" fill="#172255"/>
<path d="M48 22C48 33.5958 38.5777 43 26.95 43C15.3223 43 5.9 33.5958 5.9 22C5.9 10.4042 15.3223 1 26.95 1C38.5777 1 48 10.4042 48 22Z" fill="url(#paint0_linear_2_18)" stroke="#F1F3FF" stroke-width="2"/>
<rect x="2.45" y="11.6111" width="15.3125" height="1.83333" fill="white"/>
<rect y="20.7778" width="14.7" height="1.83333" fill="white"/>
<rect x="1.8375" y="29.9445" width="15.925" height="1.83333" fill="white"/>
<ellipse cx="18.0688" cy="12.5278" rx="2.75625" ry="2.75" fill="white"/>
<ellipse cx="15.6188" cy="21.6944" rx="2.75625" ry="2.75" fill="white"/>
<ellipse cx="18.0688" cy="30.8611" rx="2.75625" ry="2.75" fill="white"/>
<path d="M40.158 13.3926C40.0725 13.1577 39.8478 13 39.5979 13C39.2677 13 39 13.2649 39 13.5951C39 15.3119 39 20.2615 39 22C39 23.7376 39 28.6833 39 30.4024C39 30.734 39.2688 31 39.6003 31C39.8492 31 40.0735 30.844 40.1606 30.6109C42.6464 23.9525 42.5805 20.05 40.158 13.3926Z" fill="white"/>
<defs>
<linearGradient id="paint0_linear_2_18" x1="13" y1="5.5" x2="49" y2="47.5" gradientUnits="userSpaceOnUse">
<stop stop-color="#536DFE"/>
<stop offset="1" stop-color="#9E3DFF"/>
</linearGradient>
</defs>
</svg>
