<svg width="17" height="19" viewBox="0 0 17 19" fill="none" xmlns="http://www.w3.org/2000/svg">
<path d="M13.7249 0.95V0.475C13.7249 0.349022 13.6749 0.228204 13.5858 0.139124C13.4967 0.0500445 13.3759 2.83122e-08 13.2499 2.83122e-08C13.1239 2.83122e-08 13.0031 0.0500445 12.914 0.139124C12.8249 0.228204 12.7749 0.349022 12.7749 0.475V0.95H11.3499V0.475C11.3499 0.349022 11.2999 0.228204 11.2108 0.139124C11.1217 0.0500445 11.0009 0 10.8749 0C10.7489 0 10.6281 0.0500445 10.539 0.139124C10.4499 0.228204 10.3999 0.349022 10.3999 0.475V0.95H8.9749V0.475C8.9749 0.349022 8.92486 0.228204 8.83578 0.139124C8.7467 0.0500445 8.62588 0 8.4999 0C8.37392 0 8.25311 0.0500445 8.16403 0.139124C8.07495 0.228204 8.0249 0.349022 8.0249 0.475V0.95H6.5999V0.475C6.5999 0.349022 6.54986 0.228204 6.46078 0.139124C6.3717 0.0500445 6.25088 2.00198e-08 6.1249 2.00198e-08C5.99892 2.00198e-08 5.87811 0.0500445 5.78903 0.139124C5.69995 0.228204 5.6499 0.349022 5.6499 0.475V0.95H4.2249V0.475C4.2249 0.349022 4.17486 0.228204 4.08578 0.139124C3.9967 0.0500445 3.87588 2.00198e-08 3.7499 2.00198e-08C3.62392 2.00198e-08 3.50311 0.0500445 3.41403 0.139124C3.32495 0.228204 3.2749 0.349022 3.2749 0.475V0.95C2.64501 0.95 2.04092 1.20022 1.59552 1.64562C1.15012 2.09102 0.899902 2.69511 0.899902 3.325V16.625C0.899902 17.2549 1.15012 17.859 1.59552 18.3044C2.04092 18.7498 2.64501 19 3.2749 19H10.4051L16.0999 13.3V3.325C16.0999 2.69511 15.8497 2.09102 15.4043 1.64562C14.9589 1.20022 14.3548 0.95 13.7249 0.95ZM5.1749 5.7H11.8108C11.9368 5.7 12.0576 5.75004 12.1467 5.83912C12.2358 5.9282 12.2858 6.04902 12.2858 6.175C12.2858 6.30098 12.2358 6.4218 12.1467 6.51088C12.0576 6.59996 11.9368 6.65 11.8108 6.65H5.1749C5.04892 6.65 4.92811 6.59996 4.83903 6.51088C4.74995 6.4218 4.6999 6.30098 4.6999 6.175C4.6999 6.04902 4.74995 5.9282 4.83903 5.83912C4.92811 5.75004 5.04892 5.7 5.1749 5.7ZM5.1749 7.6H11.8249C11.9509 7.6 12.0717 7.65004 12.1608 7.73912C12.2499 7.8282 12.2999 7.94902 12.2999 8.075C12.2999 8.20098 12.2499 8.3218 12.1608 8.41088C12.0717 8.49996 11.9509 8.55 11.8249 8.55H5.1749C5.04892 8.55 4.92811 8.49996 4.83903 8.41088C4.74995 8.3218 4.6999 8.20098 4.6999 8.075C4.6999 7.94902 4.74995 7.8282 4.83903 7.73912C4.92811 7.65004 5.04892 7.6 5.1749 7.6ZM8.9749 10.45H5.1749C5.04892 10.45 4.92811 10.4 4.83903 10.3109C4.74995 10.2218 4.6999 10.101 4.6999 9.975C4.6999 9.84902 4.74995 9.7282 4.83903 9.63912C4.92811 9.55004 5.04892 9.5 5.1749 9.5H8.9749C9.10088 9.5 9.2217 9.55004 9.31078 9.63912C9.39986 9.7282 9.4499 9.84902 9.4499 9.975C9.4499 10.101 9.39986 10.2218 9.31078 10.3109C9.2217 10.4 9.10088 10.45 8.9749 10.45ZM9.9249 18.05V15.2C9.9249 14.5701 10.1751 13.966 10.6205 13.5206C11.0659 13.0752 11.67 12.825 12.2999 12.825H15.1499L9.9249 18.05Z" fill="#172255"/>
</svg>
