<svg width="25" height="25" viewBox="0 0 25 25" fill="none" xmlns="http://www.w3.org/2000/svg">
<path d="M10 0.804878C4.48828 0.804878 0 5.18369 0 10.561C0 15.9383 4.48828 20.3171 10 20.3171C12.3984 20.3171 14.5977 19.4863 16.3242 18.1067L22.293 23.9337C22.543 24.189 22.918 24.2919 23.2656 24.2005C23.6172 24.1128 23.8906 23.846 23.9805 23.503C24.0742 23.1639 23.9688 22.798 23.707 22.5541L17.7344 16.7271C19.1484 15.0465 20 12.9009 20 10.561C20 5.18369 15.5117 0.804878 10 0.804878ZM10 2.7561C14.4297 2.7561 18 6.23933 18 10.561C18 14.8826 14.4297 18.3659 10 18.3659C5.57031 18.3659 2 14.8826 2 10.561C2 6.23933 5.57031 2.7561 10 2.7561Z" fill="white"/>
</svg>
